<mxfile host="65bd71144e">
    <diagram name="Page-1" id="5vk-AxkH5p3TmMqOk-uM">
        <mxGraphModel dx="3024" dy="976" grid="1" gridSize="10" guides="1" tooltips="1" connect="1" arrows="1" fold="1" page="1" pageScale="1" pageWidth="850" pageHeight="1100" math="0" shadow="0">
            <root>
                <mxCell id="0"/>
                <mxCell id="1" parent="0"/>
                <mxCell id="G8C6YfX6AfOA6UU9byr--4" value="&lt;div&gt;Cuando ocurre una imagen pre ONECAL, esa solo se&amp;nbsp;&lt;/div&gt;&lt;div&gt;usara como inmagen de antes. La que se genera post ONECAL&lt;/div&gt;&lt;div&gt;se usara como el despues de la correccion anterior y antes de la&lt;/div&gt;&lt;div&gt;correccion sgte. La ulitma imagen sera el despues de la correccion previa&lt;/div&gt;&lt;div&gt;pero el antes de ninguno.&lt;/div&gt;&lt;div&gt;La imagen deberia tener 2 ID de correccion: uno de la correccion previa y&lt;/div&gt;&lt;div&gt;otro de la correccion posterior.&lt;/div&gt;" style="text;html=1;align=center;verticalAlign=middle;resizable=0;points=[];autosize=1;strokeColor=none;fillColor=none;" parent="1" vertex="1">
                    <mxGeometry x="-680" y="360" width="410" height="110" as="geometry"/>
                </mxCell>
                <mxCell id="sSnM3UFTQtyy7M4FHXJY-14" style="edgeStyle=orthogonalEdgeStyle;rounded=0;orthogonalLoop=1;jettySize=auto;html=1;exitX=0.5;exitY=1;exitDx=0;exitDy=0;entryX=0.5;entryY=0;entryDx=0;entryDy=0;endArrow=none;endFill=0;" parent="1" source="sSnM3UFTQtyy7M4FHXJY-1" target="sSnM3UFTQtyy7M4FHXJY-3" edge="1">
                    <mxGeometry relative="1" as="geometry"/>
                </mxCell>
                <mxCell id="sSnM3UFTQtyy7M4FHXJY-15" style="edgeStyle=orthogonalEdgeStyle;rounded=0;orthogonalLoop=1;jettySize=auto;html=1;exitX=0.5;exitY=1;exitDx=0;exitDy=0;entryX=0.5;entryY=0;entryDx=0;entryDy=0;endArrow=none;endFill=0;" parent="1" source="sSnM3UFTQtyy7M4FHXJY-1" target="sSnM3UFTQtyy7M4FHXJY-6" edge="1">
                    <mxGeometry relative="1" as="geometry"/>
                </mxCell>
                <mxCell id="sSnM3UFTQtyy7M4FHXJY-1" value="&lt;b&gt;Corrections&lt;/b&gt;" style="swimlane;fontStyle=0;align=center;verticalAlign=top;childLayout=stackLayout;horizontal=1;startSize=40;horizontalStack=0;resizeParent=1;resizeParentMax=0;resizeLast=0;collapsible=0;marginBottom=0;html=1;whiteSpace=wrap;" parent="1" vertex="1">
                    <mxGeometry x="-1160" y="80" width="160" height="160" as="geometry"/>
                </mxCell>
                <mxCell id="sSnM3UFTQtyy7M4FHXJY-2" value="&lt;div&gt;ID_corr: int(PK)&lt;/div&gt;&lt;div&gt;timestamp : time&lt;/div&gt;&lt;div&gt;ID_p_av : int(FK)&lt;/div&gt;&lt;div&gt;ID_f_dist_old : int(FK)&lt;/div&gt;&lt;div&gt;ID_f_dist_new : int(FK)&lt;/div&gt;&lt;div&gt;ID_img_old : int(FK)&lt;/div&gt;&lt;div&gt;ID_img_new : int(FK)&lt;/div&gt;" style="text;html=1;strokeColor=none;fillColor=none;align=left;verticalAlign=middle;spacingLeft=4;spacingRight=4;overflow=hidden;rotatable=0;points=[[0,0.5],[1,0.5]];portConstraint=eastwest;whiteSpace=wrap;" parent="sSnM3UFTQtyy7M4FHXJY-1" vertex="1">
                    <mxGeometry y="40" width="160" height="120" as="geometry"/>
                </mxCell>
                <mxCell id="sSnM3UFTQtyy7M4FHXJY-3" value="&lt;div&gt;&lt;b&gt;Forces_distribution&lt;/b&gt;&lt;/div&gt;" style="swimlane;fontStyle=0;align=center;verticalAlign=top;childLayout=stackLayout;horizontal=1;startSize=40;horizontalStack=0;resizeParent=1;resizeParentMax=0;resizeLast=0;collapsible=0;marginBottom=0;html=1;whiteSpace=wrap;" parent="1" vertex="1">
                    <mxGeometry x="-1280" y="320" width="140" height="160" as="geometry"/>
                </mxCell>
                <mxCell id="sSnM3UFTQtyy7M4FHXJY-4" value="&lt;div&gt;ID_f_dist : int(PK)&lt;/div&gt;&lt;div&gt;force_1 : float&lt;/div&gt;&lt;div&gt;force_2 : float&lt;/div&gt;&lt;div&gt;...&lt;/div&gt;&lt;div&gt;force_150: float&lt;/div&gt;" style="text;html=1;strokeColor=none;fillColor=none;align=left;verticalAlign=middle;spacingLeft=4;spacingRight=4;overflow=hidden;rotatable=0;points=[[0,0.5],[1,0.5]];portConstraint=eastwest;whiteSpace=wrap;" parent="sSnM3UFTQtyy7M4FHXJY-3" vertex="1">
                    <mxGeometry y="40" width="140" height="120" as="geometry"/>
                </mxCell>
                <mxCell id="sSnM3UFTQtyy7M4FHXJY-6" value="&lt;div&gt;&lt;b&gt;Pistons_available&lt;/b&gt;&lt;/div&gt;" style="swimlane;fontStyle=0;align=center;verticalAlign=top;childLayout=stackLayout;horizontal=1;startSize=40;horizontalStack=0;resizeParent=1;resizeParentMax=0;resizeLast=0;collapsible=0;marginBottom=0;html=1;whiteSpace=wrap;" parent="1" vertex="1">
                    <mxGeometry x="-1020" y="320" width="140" height="160" as="geometry"/>
                </mxCell>
                <mxCell id="sSnM3UFTQtyy7M4FHXJY-7" value="&lt;div&gt;ID_p_av: int(PK)&lt;/div&gt;&lt;div&gt;piston_1 : int&lt;/div&gt;&lt;div&gt;piston_2 : int&lt;/div&gt;&lt;div&gt;...&lt;/div&gt;&lt;div&gt;piston_150: int&lt;/div&gt;" style="text;html=1;strokeColor=none;fillColor=none;align=left;verticalAlign=middle;spacingLeft=4;spacingRight=4;overflow=hidden;rotatable=0;points=[[0,0.5],[1,0.5]];portConstraint=eastwest;whiteSpace=wrap;" parent="sSnM3UFTQtyy7M4FHXJY-6" vertex="1">
                    <mxGeometry y="40" width="140" height="120" as="geometry"/>
                </mxCell>
                <mxCell id="sSnM3UFTQtyy7M4FHXJY-8" value="&lt;div&gt;&lt;b&gt;Additional_data&lt;/b&gt;&lt;/div&gt;" style="swimlane;fontStyle=0;align=center;verticalAlign=top;childLayout=stackLayout;horizontal=1;startSize=40;horizontalStack=0;resizeParent=1;resizeParentMax=0;resizeLast=0;collapsible=0;marginBottom=0;html=1;whiteSpace=wrap;" parent="1" vertex="1">
                    <mxGeometry x="-840" y="80" width="180" height="160" as="geometry"/>
                </mxCell>
                <mxCell id="sSnM3UFTQtyy7M4FHXJY-9" value="&lt;div&gt;ID_adtt_data : int (PK)&lt;/div&gt;&lt;div&gt;timestamp&lt;/div&gt;&lt;div&gt;&lt;span style=&quot;background-color: transparent; color: light-dark(rgb(0, 0, 0), rgb(255, 255, 255));&quot;&gt;attribute : str (Torque, Aberang, etc)&lt;/span&gt;&lt;/div&gt;&lt;div&gt;label : str (AZ, ALT, 0, 1, etc)&lt;/div&gt;&lt;div&gt;data : float&lt;/div&gt;" style="text;html=1;strokeColor=none;fillColor=none;align=left;verticalAlign=middle;spacingLeft=4;spacingRight=4;overflow=hidden;rotatable=0;points=[[0,0.5],[1,0.5]];portConstraint=eastwest;whiteSpace=wrap;" parent="sSnM3UFTQtyy7M4FHXJY-8" vertex="1">
                    <mxGeometry y="40" width="180" height="120" as="geometry"/>
                </mxCell>
                <mxCell id="sSnM3UFTQtyy7M4FHXJY-10" value="&lt;b&gt;Images&lt;/b&gt;" style="swimlane;fontStyle=0;align=center;verticalAlign=top;childLayout=stackLayout;horizontal=1;startSize=40;horizontalStack=0;resizeParent=1;resizeParentMax=0;resizeLast=0;collapsible=0;marginBottom=0;html=1;whiteSpace=wrap;" parent="1" vertex="1">
                    <mxGeometry x="-1415" y="100" width="140" height="120" as="geometry"/>
                </mxCell>
                <mxCell id="sSnM3UFTQtyy7M4FHXJY-11" value="&lt;div&gt;ID_image : int (PK)&lt;/div&gt;&lt;div&gt;&lt;span style=&quot;background-color: transparent; color: light-dark(rgb(0, 0, 0), rgb(255, 255, 255));&quot;&gt;img_path : path&lt;/span&gt;&lt;/div&gt;" style="text;html=1;strokeColor=none;fillColor=none;align=left;verticalAlign=middle;spacingLeft=4;spacingRight=4;overflow=hidden;rotatable=0;points=[[0,0.5],[1,0.5]];portConstraint=eastwest;whiteSpace=wrap;" parent="sSnM3UFTQtyy7M4FHXJY-10" vertex="1">
                    <mxGeometry y="40" width="140" height="80" as="geometry"/>
                </mxCell>
                <mxCell id="sSnM3UFTQtyy7M4FHXJY-12" value="" style="edgeStyle=orthogonalEdgeStyle;rounded=0;orthogonalLoop=1;jettySize=auto;html=1;endArrow=none;endFill=0;" parent="1" source="sSnM3UFTQtyy7M4FHXJY-2" target="sSnM3UFTQtyy7M4FHXJY-11" edge="1">
                    <mxGeometry relative="1" as="geometry"/>
                </mxCell>
                <mxCell id="sSnM3UFTQtyy7M4FHXJY-16" value="1" style="text;html=1;align=center;verticalAlign=middle;resizable=0;points=[];autosize=1;strokeColor=none;fillColor=none;" parent="1" vertex="1">
                    <mxGeometry x="-1270" y="153" width="30" height="30" as="geometry"/>
                </mxCell>
                <mxCell id="sSnM3UFTQtyy7M4FHXJY-17" value="1..*" style="text;html=1;align=center;verticalAlign=middle;resizable=0;points=[];autosize=1;strokeColor=none;fillColor=none;" parent="1" vertex="1">
                    <mxGeometry x="-1200" y="153" width="40" height="30" as="geometry"/>
                </mxCell>
                <mxCell id="sSnM3UFTQtyy7M4FHXJY-20" value="1" style="text;html=1;align=center;verticalAlign=middle;resizable=0;points=[];autosize=1;strokeColor=none;fillColor=none;" parent="1" vertex="1">
                    <mxGeometry x="-1205" y="290" width="30" height="30" as="geometry"/>
                </mxCell>
                <mxCell id="sSnM3UFTQtyy7M4FHXJY-21" value="1" style="text;html=1;align=center;verticalAlign=middle;resizable=0;points=[];autosize=1;strokeColor=none;fillColor=none;" parent="1" vertex="1">
                    <mxGeometry x="-950" y="290" width="30" height="30" as="geometry"/>
                </mxCell>
                <mxCell id="sSnM3UFTQtyy7M4FHXJY-22" value="&lt;div&gt;1..*&lt;/div&gt;" style="text;html=1;align=center;verticalAlign=middle;resizable=0;points=[];autosize=1;strokeColor=none;fillColor=none;" parent="1" vertex="1">
                    <mxGeometry x="-1080" y="240" width="40" height="30" as="geometry"/>
                </mxCell>
                <mxCell id="jqdD7Sj4UDz0UhMsBiM--2" value="&lt;div&gt;Avances sobre observatorio: &lt;br&gt;&lt;/div&gt;&lt;div&gt;Se les compartio un bucket S3, se pasaron varios logs&lt;/div&gt;&lt;div&gt;Se van a entregar estos el prox martes para testear&lt;/div&gt;&lt;div&gt;con el codigo de guardado ya hecho.&lt;/div&gt;" style="text;html=1;align=center;verticalAlign=middle;resizable=0;points=[];autosize=1;strokeColor=none;fillColor=none;" parent="1" vertex="1">
                    <mxGeometry x="-1545" y="528" width="310" height="70" as="geometry"/>
                </mxCell>
            </root>
        </mxGraphModel>
    </diagram>
</mxfile>